<?xml version="1.0" encoding="UTF-8"?>
<svg width="83px" height="16px" viewBox="0 0 83 16" version="1.1" xmlns="http://www.w3.org/2000/svg" xmlns:xlink="http://www.w3.org/1999/xlink">
    <title>FLEXiNAV</title>
    <g id="Page-1" stroke="none" stroke-width="1" fill="none" fill-rule="evenodd">
        <path d="M3.6484375,16 L3.6484375,10.7460938 L9.10742188,10.7460938 L9.10742188,8.00195312 L3.6484375,8.00195312 L3.6484375,4.79882812 L9.65429688,4.79882812 L9.65429688,1.90820312 L0.064453125,1.90820312 L0.064453125,16 L3.6484375,16 Z M20.6643615,16 L20.6643615,13.109375 L14.8342834,13.109375 L14.8342834,1.90820312 L11.250299,1.90820312 L11.250299,16 L20.6643615,16 Z M31.9771605,16 L31.9771605,13.109375 L25.9029418,13.109375 L25.9029418,10.2382812 L31.6158324,10.2382812 L31.6158324,7.6015625 L25.9029418,7.6015625 L25.9029418,4.79882812 L31.9771605,4.79882812 L31.9771605,1.90820312 L22.3189574,1.90820312 L22.3189574,16 L31.9771605,16 Z M37.1669127,16 L39.9110533,11.4296875 L39.9891783,11.4296875 L42.7235533,16 L46.7469908,16 L42.3036314,8.96875 L42.3036314,8.90039062 L46.7860533,1.90820312 L42.8114439,1.90820312 L40.204022,6.67382812 L40.1356627,6.67382812 L37.547772,1.90820312 L33.3680845,1.90820312 L37.6649595,8.86132812 L37.6649595,8.93945312 L33.3583189,16 L37.1669127,16 Z M49.7687742,4.15429688 C50.7258054,4.15429688 51.4777586,3.39257812 51.4777586,2.484375 C51.4777586,1.56640625 50.7258054,0.8046875 49.7687742,0.8046875 C48.8215086,0.8046875 48.0695554,1.56640625 48.0695554,2.484375 C48.0695554,3.39257812 48.8215086,4.15429688 49.7687742,4.15429688 Z M51.5168211,16 L51.5168211,5.36523438 L48.0597898,5.36523438 L48.0597898,16 L51.5168211,16 Z M55.3857724,16 L55.3857724,9.07861328 L55.4516904,9.07861328 L60.395538,16 L62.2265927,16 L62.2265927,5.43115234 L60.1098935,5.43115234 L60.1098935,12.315918 L60.0512998,12.315918 L55.1147763,5.43115234 L53.2690732,5.43115234 L53.2690732,16 L55.3857724,16 Z M65.5915631,16 L66.3972271,13.4365234 L70.110606,13.4365234 L70.9162701,16 L73.2673443,16 L69.5905865,5.43115234 L66.9904889,5.43115234 L63.3210553,16 L65.5915631,16 Z M69.6345318,11.78125 L66.8733014,11.78125 L68.2282818,7.45263672 L68.2795514,7.45263672 L69.6345318,11.78125 Z M78.7636623,16 L82.3159084,5.43115234 L79.9062405,5.43115234 L77.4892483,13.722168 L77.4379787,13.722168 L75.0209866,5.43115234 L72.5454006,5.43115234 L76.0976467,16 L78.7636623,16 Z" id="FLEXiNAV" fill="#ECF0F1" fill-rule="nonzero"></path>
    </g>
</svg>